HIERARCHY
ROOT Hips
{
	OFFSET 0.00000 0.00000 0.00000
	CHANNELS 6 Xposition Yposition Zposition Zrotation Yrotation Xrotation 
	JOINT LHipJoint
	{
		OFFSET 0 0 0
		CHANNELS 3 Zrotation Yrotation Xrotation
		JOINT LeftHip
		{
			OFFSET 1.62964 -1.40469 0.78906
			CHANNELS 3 Zrotation Yrotation Xrotation
			JOINT LeftKnee
			{
				OFFSET 2.29640 -6.30932 0.00000
				CHANNELS 3 Zrotation Yrotation Xrotation
				JOINT LeftAnkle
				{
					OFFSET 2.29451 -6.30412 0.00000
					CHANNELS 3 Zrotation Yrotation Xrotation
					JOINT LeftToe
					{
						OFFSET 0.03611 -0.09921 1.56387
						CHANNELS 3 Zrotation Yrotation Xrotation
						End Site
						{
							OFFSET 0.00000 -0.00000 0.80291
						}
					}
				}
			}
		}
	}
	JOINT RHipJoint
	{
		OFFSET 0 0 0
		CHANNELS 3 Zrotation Yrotation Xrotation
		JOINT RightHip
		{
			OFFSET -1.73712 -1.40469 0.78906
			CHANNELS 3 Zrotation Yrotation Xrotation
			JOINT RightKnee
			{
				OFFSET -2.28137 -6.26801 0.00000
				CHANNELS 3 Zrotation Yrotation Xrotation
				JOINT RightAnkle
				{
					OFFSET -2.28681 -6.28298 0.00000
					CHANNELS 3 Zrotation Yrotation Xrotation
					JOINT RightToe
					{
						OFFSET -0.15927 -0.43759 1.61103
						CHANNELS 3 Zrotation Yrotation Xrotation
						End Site
						{
							OFFSET -0.00000 -0.00000 0.84630
						}
					}
				}
			}
		}
	}
	JOINT lowerback
	{
		OFFSET 0 0 0
		CHANNELS 3 Zrotation Yrotation Xrotation
		JOINT Chest
		{
			OFFSET -0.04227 2.04338 -0.00225
			CHANNELS 3 Zrotation Yrotation Xrotation
			JOINT Chest2
			{
				OFFSET -0.02148 2.04482 -0.04273
				CHANNELS 3 Zrotation Yrotation Xrotation
				JOINT lowerneck
				{
					OFFSET 0 0 0
					CHANNELS 3 Zrotation Yrotation Xrotation
					JOINT Neck
					{
						OFFSET 0.09180 1.44629 0.19359
						CHANNELS 3 Zrotation Yrotation Xrotation
						JOINT Head
						{
							OFFSET 0.00887 1.40645 0.14750
							CHANNELS 3 Zrotation Yrotation Xrotation
							End Site
							{
								OFFSET -0.00669 1.50671 0.03707
							}
						}
					}
				}
				JOINT LeftCollar
				{
					OFFSET 0 0 0
					CHANNELS 3 Zrotation Yrotation Xrotation
					JOINT LeftShoulder
					{
						OFFSET 2.17674 1.86763 -0.06520
CHANNELS 3 Zrotation Xrotation Yrotation
						JOINT LeftElbow
						{
OFFSET 0 -4.657760 0.000000
CHANNELS 3 Zrotation Xrotation Yrotation
							JOINT LeftWrist
							{
OFFSET 0 -3.555390 0.000000
CHANNELS 3 Zrotation Xrotation Yrotation
								JOINT lhand
								{
									OFFSET 0 0 0
CHANNELS 3 Zrotation Xrotation Yrotation
									JOINT LFingers
									{
OFFSET 0 -0.707260 0.000000
CHANNELS 3 Zrotation Xrotation Yrotation
										End Site
										{
OFFSET 0 -0.570220 0.000000
										}
									}
								}
								JOINT LThumb
								{
OFFSET 0 0.000000 0.000000
CHANNELS 3 Zrotation Xrotation Yrotation
									End Site
									{
OFFSET 0 -0.578920 0.578920
									}
								}
							}
						}
					}
				}
				JOINT RightCollar
				{
					OFFSET 0 0 0
					CHANNELS 3 Zrotation Yrotation Xrotation
					JOINT RightShoulder
					{
						OFFSET -2.80694 1.55459 -0.32496
CHANNELS 3 Zrotation Xrotation Yrotation
						JOINT RightElbow
						{
OFFSET 0 -4.719250 -0.000000
CHANNELS 3 Zrotation Xrotation Yrotation
							JOINT RightWrist
							{
OFFSET 0 -3.569900 0.000000
CHANNELS 3 Zrotation Xrotation Yrotation
								JOINT rhand
								{
									OFFSET 0 0 0
CHANNELS 3 Zrotation Xrotation Yrotation
									JOINT RFingers
									{
OFFSET 0 -0.507760 0.000000
CHANNELS 3 Zrotation Xrotation Yrotation
										End Site
										{
OFFSET 0 -0.409370 0.000000
										}
									}
								}
								JOINT RThumb
								{
OFFSET 0 0.000000 0.000000
CHANNELS 3 Zrotation Xrotation Yrotation
									End Site
									{
OFFSET 0 -0.415620 0.415620
									}
								}
							}
						}
					}
				}
			}
		}
	}
}
MOTION
Frames: 4
Frame Time: 0.008333333333333333
10.023400 16.432837 3.762339 176.733895 0.492442 -160.985950 0.000000 0.000000 0.000000 -5.418834 -21.966727 -78.907696 16.994709 19.780310 81.181728 1.019021 0.550785 -19.287106 1.857542 -8.560678 -24.431701 0.000000 0.000000 0.000000 19.812287 13.305667 -17.411778 -0.378297 -3.949809 10.935478 -1.039118 -2.605013 -20.359767 -3.872535 11.988855 -35.692669 -6.114193 -0.612436 -18.597552 -0.425963 0.682167 3.533098 3.204497 -0.201271 14.496972 -1.730203 -0.983138 -3.672242 3.277594 -3.469911 21.416895 1.030400 -2.116973 7.228960 0.000000 0.000000 0.000000 5.348119 3.032562 -20.136160 15.035484 -24.195515 3.240495 20.833540 2.698582 9.676920 0.000000 0.000000 0.000000 -7.125000 0.000000 0.000000 -4.377483 19.655516 -2.657576 0.000000 0.000000 0.000000 -1.307136 -2.056064 14.616762 -23.944850 -35.105827 -7.674802 -12.455183 7.012116 52.821088 0.000000 0.000000 0.000000 7.125000 0.000000 0.000000 65.927096 75.848604 -52.026100
10.022532 16.434690 3.651093 176.592957 0.623871 -161.128290 0.000000 0.000000 0.000000 -5.376279 -21.930928 -78.948059 16.039029 19.618957 78.347673 0.962359 0.240175 -18.632444 1.709268 -8.227869 -23.410980 0.000000 0.000000 0.000000 19.733758 13.036006 -17.005129 -0.393303 -4.027041 11.152796 -1.091790 -2.342715 -20.711526 -3.828513 11.928620 -35.479850 -6.177266 -0.521037 -18.511439 -0.567934 0.901929 3.653796 3.151739 -0.076588 14.570894 -1.834326 -0.995636 -3.772003 3.351718 -3.487489 21.479489 1.069504 -2.123416 7.270400 0.000000 0.000000 0.000000 5.498232 2.966965 -20.232633 14.880589 -23.979490 3.177276 21.147053 2.617330 10.049254 0.000000 0.000000 0.000000 -7.125000 0.000000 0.000000 -4.161381 19.236504 -2.564699 0.000000 0.000000 0.000000 -1.238472 -2.276903 15.357075 -24.100111 -35.269842 -7.764332 -10.798030 5.900870 56.769493 0.000000 0.000000 0.000000 7.125000 0.000000 0.000000 82.012964 75.906085 -67.385139
10.025766 16.430247 3.540256 176.498469 0.673572 -161.093725 0.000000 0.000000 0.000000 -5.351786 -21.874834 -79.156647 15.193424 19.436146 75.818234 0.870595 0.107066 -17.677357 2.291189 -9.444616 -27.198803 0.000000 0.000000 0.000000 19.741283 12.893497 -16.554306 -0.388652 -4.003173 11.085494 -1.143855 -2.231793 -21.121260 -3.883180 12.003340 -35.743767 -6.244236 -0.476239 -18.570198 -0.697606 1.008478 3.696270 3.075971 -0.027385 14.648775 -1.916068 -0.923015 -3.918206 3.465458 -3.421332 21.676466 1.122476 -2.090303 7.361929 0.000000 0.000000 0.000000 5.698469 3.035684 -20.090259 14.901466 -24.008648 3.185730 21.149059 2.649568 9.773244 0.000000 0.000000 0.000000 -7.125000 0.000000 0.000000 -4.154166 19.530129 -2.532995 0.000000 0.000000 0.000000 -1.172737 -2.412091 16.322376 -24.382515 -35.566072 -7.927929 -11.071243 5.654051 56.972133 0.000000 0.000000 0.000000 7.125000 0.000000 0.000000 82.827725 76.011286 -68.310756
10.023926 16.421444 3.426667 176.402586 0.757346 -161.111122 0.000000 0.000000 0.000000 -5.214915 -21.952120 -79.098732 14.412090 19.233062 73.458152 0.818674 -0.408912 -16.966184 2.151650 -9.175001 -26.344266 0.000000 0.000000 0.000000 19.729231 12.753672 -15.988318 -0.376923 -3.943037 10.916425 -1.183128 -2.127595 -21.415707 -3.916274 12.048189 -35.902658 -6.365334 -0.439578 -18.456756 -0.791457 1.094608 3.677193 3.062935 0.012795 14.550124 -1.701153 -0.909816 -3.854839 3.226886 -3.372642 21.643924 1.013027 -2.069955 7.332201 0.000000 0.000000 0.000000 5.743952 3.121469 -19.860431 14.827316 -23.905029 3.155642 21.074250 2.824361 9.406616 0.000000 0.000000 0.000000 -7.125000 0.000000 0.000000 -4.200808 19.925884 -2.524357 0.000000 0.000000 0.000000 -1.143216 -2.455781 17.254238 -24.659502 -35.853823 -8.089699 -11.276147 5.788364 57.515462 0.000000 0.000000 0.000000 7.125000 0.000000 0.000000 85.026085 76.078086 -70.594344
